<?xml version="1.0" encoding="utf-8"?>
<svg viewBox="104.585 65.459 250.163 216.748" xmlns="http://www.w3.org/2000/svg">
  <path d="M 323.732 113.144 C 323.732 115.538 322.343 117.479 320.63 117.479 L 271.003 117.479 C 268.615 117.479 267.124 113.865 268.316 110.976 C 268.871 109.634 269.895 108.809 271.003 108.809 L 320.63 108.809 C 322.343 108.809 323.732 110.75 323.732 113.144 Z M 320.63 143.488 L 271.003 143.488 C 268.615 143.488 267.124 147.1 268.316 149.991 C 268.871 151.331 269.895 152.158 271.003 152.158 L 320.63 152.158 C 323.018 152.158 324.51 148.545 323.316 145.656 C 322.762 144.314 321.738 143.488 320.63 143.488 Z M 354.748 78.464 L 354.748 269.202 C 354.743 276.381 350.58 282.198 345.444 282.207 L 246.189 282.207 C 241.053 282.198 236.89 276.381 236.884 269.202 L 236.884 78.464 C 236.89 71.284 241.053 65.467 246.189 65.459 L 345.444 65.459 C 350.58 65.467 354.743 71.284 354.748 78.464 Z M 348.545 78.464 C 348.543 76.07 347.157 74.131 345.444 74.129 L 246.189 74.129 C 244.477 74.131 243.09 76.07 243.087 78.464 L 243.087 269.202 C 243.09 271.595 244.477 273.534 246.189 273.537 L 345.444 273.537 C 347.157 273.534 348.543 271.595 348.545 269.202 L 348.545 78.464 Z" style="" transform="matrix(0.9999999999999999, 0, 0, 0.9999999999999999, 0, 0)"/>
  <path d="M 111.529 245.226 L 104.585 119.041 C 104.585 110.204 111.748 103.041 120.585 103.041 L 280.585 103.041 C 289.421 103.041 296.585 110.204 296.585 119.041 L 293.113 238.862 C 282.509 246.815 103.709 251.091 111.529 245.226 Z" style="stroke: rgb(143, 172, 51); paint-order: stroke; fill: rgb(255, 255, 255); stroke-width: 0px;" transform="matrix(0.9999999999999999, 0, 0, 0.9999999999999999, 0, 0)"/>
  <rect x="-296.585" y="-247.041" width="192" height="144" rx="16" transform="matrix(-0.9999999999999999, 0, 0, -0.9999999999999999, 0, 0)" fill="none" stroke="#000" stroke-linecap="round" stroke-linejoin="round" style="stroke-width: 8px;"/>
  <line x1="232.585" y1="279.041" x2="168.585" y2="279.041" fill="none" stroke="#000" stroke-linecap="round" stroke-linejoin="round" style="stroke-width: 8px;" transform="matrix(0.9999999999999999, 0, 0, 0.9999999999999999, 0, 0)"/>
  <line x1="104.585" y1="207.041" x2="296.585" y2="207.041" fill="none" stroke="#000" stroke-linecap="round" stroke-linejoin="round" style="stroke-width: 8px;" transform="matrix(0.9999999999999999, 0, 0, 0.9999999999999999, 0, 0)"/>
  <line x1="200.585" y1="247.041" x2="200.585" y2="279.041" fill="none" stroke="#000" stroke-linecap="round" stroke-linejoin="round" style="stroke-width: 8px;" transform="matrix(0.9999999999999999, 0, 0, 0.9999999999999999, 0, 0)"/>
</svg>