<?xml version="1.0" encoding="utf-8"?>
<svg viewBox="125.7957 93.3804 250.163 216.748" xmlns="http://www.w3.org/2000/svg">
  <g id="Layer_1" transform="matrix(0.9999999999999999, 0, 0, 0.9999999999999999, 125.79567718505858, 93.38037109374999)">
    <title>Layer 1</title>
    <g id="svg_1">
      <path id="svg_2" d="m219.14701,47.685c0,2.394 -1.389,4.335 -3.102,4.335l-49.627,0c-2.388,0 -3.879,-3.614 -2.687,-6.503c0.555,-1.342 1.579,-2.167 2.687,-2.167l49.627,0c1.713,0 3.102,1.941 3.102,4.335zm-3.102,30.344l-49.627,0c-2.388,0 -3.879,3.612 -2.687,6.503c0.555,1.34 1.579,2.167 2.687,2.167l49.627,0c2.388,0 3.88,-3.613 2.686,-6.502c-0.554,-1.342 -1.578,-2.168 -2.686,-2.168zm34.118,-65.024l0,190.738c-0.005,7.179 -4.168,12.996 -9.304,13.005l-99.255,0c-5.136,-0.009 -9.299,-5.826 -9.305,-13.005l0,-190.738c0.006,-7.18 4.169,-12.997 9.305,-13.005l99.255,0c5.136,0.008 9.299,5.825 9.304,13.005zm-6.203,0c-0.002,-2.394 -1.388,-4.333 -3.101,-4.335l-99.255,0c-1.712,0.002 -3.099,1.941 -3.102,4.335l0,190.738c0.003,2.393 1.39,4.332 3.102,4.335l99.255,0c1.713,-0.003 3.099,-1.942 3.101,-4.335l0,-190.738z"/>
      <path id="svg_3" d="m6.94401,179.767l-6.944,-126.185c0,-8.837 7.163,-16 16,-16l160,0c8.836,0 16,7.163 16,16l-3.472,119.821c-10.604,7.953 -189.404,12.229 -181.584,6.364z" stroke=" rgb(143, 172, 51)" fill=" rgb(255, 255, 255)" stroke-width=" 0px"/>
      <rect id="svg_4" x="-192.00001" y="-181.582" width="192" height="144" rx="16" transform="matrix(-1 0 0 -1 0 0)" fill="none" stroke="#000" stroke-linecap="round" stroke-linejoin="round" stroke-width=" 8px"/>
      <line id="svg_5" x1="128.00001" y1="213.582" x2="64.00001" y2="213.582" fill="none" stroke="#000" stroke-linecap="round" stroke-linejoin="round" stroke-width=" 8px"/>
      <line id="svg_6" x1="0.00001" y1="141.582" x2="192.00001" y2="141.582" fill="none" stroke="#000" stroke-linecap="round" stroke-linejoin="round" stroke-width=" 8px"/>
      <line transform="rotate(180 96 197.582)" id="svg_7" x1="95.996" y1="213.544" x2="95.996" y2="181.544" fill="none" stroke="#000" stroke-linecap="round" stroke-linejoin="round" stroke-width=" 8px"/>
    </g>
  </g>
</svg>